<?xml version="1.0" standalone="no"?>
<!DOCTYPE svg PUBLIC "-//W3C//DTD SVG 20010904//EN"
 "http://www.w3.org/TR/2001/REC-SVG-20010904/DTD/svg10.dtd">
<svg version="1.0" xmlns="http://www.w3.org/2000/svg"
 width="500.000000pt" height="500.000000pt" viewBox="0 0 500.000000 500.000000"
 preserveAspectRatio="xMidYMid meet">

<g transform="translate(0.000000,500.000000) scale(0.100000,-0.100000)"
fill="#872a38" stroke="#872a38" stroke-width="50">

<path stroke-width="60" d="M2290 4879 c-579 -52 -1115 -312 -1518 -733 -280 -294 -483 -658
-583 -1044 -184 -713 -36 -1451 412 -2049 95 -126 326 -357 452 -452 263 -196
551 -337 843 -410 470 -118 900 -104 1354 44 617 203 1142 671 1417 1265 369
796 270 1725 -260 2435 -101 136 -329 365 -460 464 -260 194 -545 334 -837
409 -275 71 -555 96 -820 71z m415 -39 c458 -41 913 -226 1270 -515 470 -380
772 -922 856 -1535 20 -141 17 -468 -5 -615 -61 -405 -211 -763 -458 -1095
-91 -122 -326 -357 -448 -448 -332 -247 -690 -397 -1095 -458 -147 -22 -474
-25 -615 -5 -530 73 -1000 303 -1369 672 -388 389 -630 904 -680 1449 -89 955
429 1882 1290 2309 399 198 825 280 1254 241z"/>
<path d="M1827 3583 c14 -16 35 -48 48 -73 27 -54 345 -862 345 -877 0 -6 -24
-23 -52 -38 -137 -71 -263 -214 -319 -364 -88 -235 -86 -528 5 -753 56 -139
172 -278 288 -346 205 -121 509 -132 749 -26 l56 25 104 -41 c57 -23 110 -44
116 -47 9 -3 7 7 -5 33 -15 34 -17 74 -17 314 0 237 2 280 17 313 l17 37 -105
0 c-57 0 -104 -2 -104 -3 0 -2 8 -19 18 -38 25 -49 25 -379 0 -425 -64 -117
-236 -186 -468 -187 -99 -1 -125 3 -187 25 -274 98 -416 379 -400 792 6 171
28 263 93 395 38 77 62 111 130 179 45 46 87 81 92 78 5 -3 60 -136 122 -296
63 -159 116 -290 120 -290 3 0 61 143 129 318 68 174 127 321 131 325 13 15
118 -42 176 -96 31 -28 78 -82 105 -120 30 -43 51 -64 54 -56 2 8 18 51 35 97
16 46 30 85 30 88 0 2 -13 4 -30 4 -16 0 -69 21 -117 47 -48 25 -119 56 -158
69 -52 17 -69 27 -67 38 5 25 298 771 323 821 12 24 35 58 50 74 l28 31 -52 0
-52 0 -1 -53 c-1 -42 -30 -127 -159 -457 -87 -223 -162 -410 -166 -416 -6 -7
-28 -8 -71 -2 -60 9 -207 5 -293 -7 l-40 -6 -104 268 c-57 147 -131 338 -164
423 -41 107 -60 169 -60 202 l-1 48 -107 0 -108 0 26 -27z m864 -950 c16 -3
29 -11 29 -18 0 -16 -159 -426 -170 -438 -4 -4 -46 92 -94 214 -48 122 -83
226 -79 230 25 25 215 32 314 12z"/>
</g>
</svg>
