<svg xmlns="http://www.w3.org/2000/svg" xmlns:xlink="http://www.w3.org/1999/xlink" version="1.0" viewBox="0 0 375 375">
  <defs>
    <path id="a" d="m280.402-43.324-319.03 127.32L94.804 418.352l319.03-127.317Zm0 0"/>
  </defs>
  <defs>
    <clipPath id="b">
      <path d="M3 22h365v341H3Zm0 0"/>
    </clipPath>
    <clipPath id="c">
      <path d="M-38.805 84.063 280.23-43.254l133.434 334.36L94.63 418.421Zm0 0"/>
    </clipPath>
    <clipPath id="d">
      <use xlink:href="#a"/>
    </clipPath>
    <clipPath id="e">
      <use xlink:href="#a"/>
    </clipPath>
  </defs>
  <g clip-path="url(#b)">
    <g clip-path="url(#c)">
      <g clip-path="url(#d)">
        <g clip-path="url(#e)">
          <path d="M3.89 174.168c0-.414.274-.77.657-.844.387-.07.816.172.887.559.91 3.113 2.023 6.316 3.304 9.531 22.04 55.219 83.664 82.961 139.23 63.602-.128-.118-.327-.203-.456-.317-.227-.156-.313-.37-.325-.613-.015-.242.141-.473.458-.516.57-.226 1.167-.382 1.77-.539l-4.212-4.117c-.797-.758-1.91-1.887-1.996-3.344.016-.172.031-.343.145-.472a.648.648 0 0 1 .5-.2l4.238.047a17.212 17.212 0 0 1 3.765.32 25.22 25.22 0 0 1 2.711.989c.602.258 1.102.473 1.672.656.043-.097-.015-.242.028-.34.113-.129.23-.257.472-.273 1.953-.281 3.739-.582 5.524-.465-.086-.215-.215-.328-.301-.543-.383-.758-.656-1.64-.899-2.457a17.31 17.31 0 0 0-1.054-2.64 30.021 30.021 0 0 0-2.067-3.317c-.683-.887-1.226-1.832-1.77-2.773-1.355-2.36-2.066-4.973-2.05-7.63-.016-.242.07-.44.285-.527a.601.601 0 0 1 .63-.086c.698.301 1.37.532 2.112.73.47.145.97.36 1.512.474 6.363 2.265 11.184 6.882 15.922 12.113-.102-.457-.242-.813-.344-1.27-1.082-5.199-.707-9.242 1.106-12.367.156-.226.515-.371.812-.242 1.742.633 3.082 1.918 4.125 3.078 1.582 1.684 2.938 3.629 4.078 5.656 2.297-1.91 4.442-4.008 6.555-6.176-5.453-.804-10.633-4.453-12.71-9.253a1.76 1.76 0 0 1-.243-1.227c.055-.273.113-.543.312-.871 2.457-4.625 4.93-8.176 7.543-10.961-1.984.629-4.113.898-6.28.852-2.243 1.226-4.184 3.824-5.071 6.578-.414 1.656-.3 3.183-.375 4.867-.043.93-.242 3.328-1.215 3.8-.754.383-1.813-.19-2.152-1.046-.313-.785-.2-1.742-.13-2.598-.527.54-1.128 1.11-1.84 1.395-.714.285-1.64.242-2.14-.387-.656-.813-.242-2.055.57-2.711 1.028-.742 2.329-1.012 3.626-1.281.886-.274 1.687-.758 2.457-1.313.785-2.797 2.543-5.652 4.714-7.262-1.128-.132-2.285-.332-3.44-.535-4.095-.933-8.005-2.847-11.243-4.539-.102-.043-.129-.113-.188-.258-.414 0-.797.07-.941.13-.84.171-1.727.44-2.54.683-.815.242-1.655.41-2.37.281-.813-.172-1.512-.887-1.442-1.742.118-.543.5-1.027 1-1.227.5-.199 1.028-.328 1.614-.312-.914-.215-1.598-1.102-1.582-2.102.113-.957.699-1.77 1.629-2.14.882-.27 1.898-.012 2.64.601.899.801 1.082 1.887 1.653 2.903.511.87 1.027 1.742 1.613 2.586 3.11 1.574 6.691 3.293 10.586 4.136 4.195.977 8.176.797 11.558-.472.43-.168.758-.383 1.114-.528.714-.695 1.558-1.28 2.398-1.867 1.828-1.226 3.742-2.238 5.711-3.105-2.453-1.176-4.992-2.149-7.46-3.153-2.642-1.015-5.411-2.144-7.962-3.363-.43-.242-.93-.457-1.355-.7-8.52-4.55-15.524-11.526-20.157-20.03-.03-.07-.058-.141-.156-.184-.601-.258-1.187-.688-1.7-1.145-1.054-.988-6.089-5.52-3.007-6.917.57-.227 1.285-.098 1.797.359.484.387.887.973 1.113 1.543-.027-.485.016-1 .188-1.399a1.21 1.21 0 0 1 1.07-.84c1.383-.054 2.238 2.087 2.18 3.188-.012 1-.27 2.012-.63 2.984-.097.372-.257 1.012-.413 1.653.058.144.113.289.242.402 4.434 8 10.953 14.594 18.86 19.055-1.044-3.64-.84-7.696-.723-11.551.027-1.172.129-2.371.156-3.543.121-6.754-1.32-11.398-4.285-14.27-.63-.332-1.301-.558-1.973-.789-.812-.171-1.597-.273-2.367-.546a2.984 2.984 0 0 1-1.953-1.371c-.586-.844-.23-1.813.742-2.286.543-.297 1.297-.27 1.856.09-.227-.988-.243-2.472.542-3.199a1.543 1.543 0 0 1 1.27-.34c1.813.188 2.313 2.473 2.441 3.828.098 1.285.196 2.57.125 3.84 3.196 3.031 4.676 7.988 4.575 14.988-.032 1.168-.059 2.34-.16 3.54-.172 4.128-.43 8.453.98 12.199.398.172.828.414 1.156.613 2.281 1.16 4.82 2.133 7.192 3.094-.813-1.828-.871-4.043-.825-6.215.043-1.754.043-3.824-.71-5.512a3.922 3.922 0 0 0-1.258-1.074c-.63-.328-1.297-.555-1.883-.984-.586-.43-1.055-.989-1.028-1.747.043-1.753 2.114-.925 2.77-.109 0-1.242 1.156-3.527 2.441-1.969.657.817.414 2.485.028 3.387-.215.496-.43.996-.614 1.57 1.141 2.028 1.11 4.442 1.079 6.442 0 2.484.027 5.039 1.195 6.726 2.57 1.043 5.21 2.063 7.691 3.305.145-.055.36-.14.5-.2.36-.14.743-.21 1.13-.28l1.527-3.426c-.899-1.63-1.696-3.215-2.567-4.774a362.153 362.153 0 0 1-6.273-11.988c-7.157-14.617-9.95-26.586-8.887-37.61-.027-.074.043-.1.016-.171-.23-.574-.5-1.043-.77-1.516-.36-.687-.887-.972-1.328-1.457-1.113-1.129-2.168-2.945-2.594-4.43-.344-1.273-.14-2.843.856-3.656.93-.785 2.398-.625 3.34.074.972.774 1.527 1.961 1.625 3.246-.184-1.085.117-2.199.902-2.93a2.74 2.74 0 0 1 2.84-.55c1.468.57 2.355 2.371 2.14 4.113-.187 1.813-1.214 2.97-2.472 3.97-1.184.968-2.528 1.753-3.657 2.866-.011.168-.07.442-.054.684-1.078 10.781 1.73 22.578 8.828 37.055.828 1.656 1.683 3.386 2.582 5.015-.684-4.2-.426-8.527.578-12.652-.102-.043-.172-.016-.203-.086-1.48-1.23-2.309-3.3-2.45-6.145l-.042-1.968c.015-1-.07-2.043-.125-3.016-.215-.328-.43-.656-.688-.887-.539-.527-.941-1.113-1.41-1.672a2.563 2.563 0 0 1-.344-2.097c.36-.973 1.844-1.399 2.457-.485.215.328.356.688.5 1.043.07-.441.414-.828.914-1.027.668-.184 1.383-.055 1.524.715.015.242.031.488-.028.758-.343 1.214-1.386 2.125-2 3.28.114 1.114.227 2.231.2 3.4.011.66.027 1.316.011 1.902.141 2.425.786 4.242 2.067 5.386 1.715-6.07 5.043-11.62 9.683-15.957-.812-1-.753-4.172-.695-5.27.016-.585.23-1.085.543-1.542-.984-2.672-1.437-5.469-1.41-8.297a.586.586 0 0 1 .36-.559c.214-.086.456-.097.683.059a130.701 130.701 0 0 1 17.789 15.344c.074-4.172-.05-8.426-.492-12.64-1.254-1.071-2.367-2.2-3.48-3.333-5.606-5.96-8.56-13.144-8.239-19.816.086-1.442.715-1.942 1.215-2.141.953-.297 1.824.434 2.137.805 1.472 1.398 3.011 2.773 4.539 4.316-.985-3.5-2.211-6.984-3.606-10.484-19.36-48.504-70.562-77.094-121.847-68.14-.457.1-.84-.243-.91-.63-.075-.383.124-.715.484-.855 70.941-27.899 151.918 7.277 180.254 78.285 4.02 10.07 6.867 20.527 8.39 31.183.942 1.114.825 3.727.739 5.583.625 6.128.906 12.226.734 18.425 2.328-3.496 4.328-7.195 6.027-11.02.27-.769.242-1.671-.14-2.425-.286-.715-.715-1.375-1.141-2.031l-.371-.516c-1-1.672-1.77-3.598-2.352-6.098-1.07-4.957-.796-9.87.95-13.796.468-1.098 1.097-1.598 1.812-1.47 1.942.306 2.879 5.56 2.879 5.56.313 2.03.21 4.058.227 5.956 0 .829-.043 1.758-.047 2.586.058.97.07 2.04.187 3.157.082 1.039.195 2.156.211 3.226.688-2.012 1.23-3.969 1.774-5.926l-.032-.07.13-1.129c.288-3.84.69-8.222 3.175-13.191l.156-.227c1.574-3.113 3.145-6.226 4.332-9.265.13-.301.383-.485.657-.426.34.027.64.156.785.512 1.41 2.09-.735 13.296-1.18 14.878-.855 2.829-3.457 7.508-6.684 9.375-.457 1.758-.957 3.614-1.586 5.356.926-.371 1.883-.668 2.84-.969 1.14-.453 2.157-1.023 3.211-1.695 1.942-1.356 3.586-3.25 5.34-5.277 2.371-2.77 4.93-5.692 8.168-6.903 1.43-.57 2.254-.156 2.57.215.856.902.47 2.629-.09 3.93-.968 2.125-3.253 4.277-6.851 6.46-1.2.727-2.527 1.34-3.883 1.88-1.93.77-3.91 1.394-5.824 1.992-.742.215-1.555.457-2.2.715a65.656 65.656 0 0 1-3.84 1.367c-.57 1.469-1.07 2.91-1.714 4.41l-.258.598a84.093 84.093 0 0 1-7.328 12.945c-.043.516-.086 1.027-.098 1.613 4.622-.023 9.235-1.945 12.446-3.64.144-.059.398-.243.758-.387 3.695-2.137 7.793-4.106 9.906-2.957.527.285 1.125.957 1.226 2.242.11 2.77-2.843 4.695-5.914 5.918-1.925.77-3.867 1.297-5.867 1.68-3.61.695-7.89-.078-12.598-1.098-.015.586-.03 1.168-.117 1.785 3.012 1.117 6.766 2.434 9.676 3.508.297.129.77.273 1.34.457 3.226 1.035 8.933 2.895 8.86 6.238a73.79 73.79 0 0 1 9.081-8.343c1.114-.942 2.426-1.797 3.782-1.512.613.086 1.171.445 1.398 1.015.355.688.355 1.516.055 2.215-.47 1.098-1.47 1.91-2.442 2.797-5.437 4.406-10.636 8.383-17.144 12.39 7.992-2.777 15.957-5.21 23.765-7.413 0 0 2.84-3.04 3.786-3.996 1.355-1.368 2.613-2.782 3.867-4.192 1.258-1.414 2.515-2.828 3.87-4.195 1.84-1.813 4.098-4.04 6.911-5.078 1.027-.328 2.496-.582 3.555-.008.496.215.84.656.898 1.215.297 1.37-.96 2.781-2.117 3.824-2.453 2.55-5.652 4.906-8.524 7.043l-.113.129c-1.77 1.371-3.695 2.555-5.68 3.594 4.653-1.196 9.305-2.391 13.973-3.34 2.242-1.227 6.738-3.02 8.235-3.621 3.71-1.48 5.054-1.848 7.753-2.762l2.653-.809c.43-.171 4.281-1.296 6.351-.05.657.398 1.086 1.058 1.227 1.828.215 1.57-.8 2.969-3.027 4.023-.286.113-.614.328-.973.473-2.711 1.082-6.067 1.59-7.606 1.875l-.316.043c-4.652.781-8.902.902-14.14.426-5.34 1.136-10.805 2.574-16.274 4.011 1.328.215 2.742.645 4.125 1.004.64.156 1.285.317 1.754.457a76.631 76.631 0 0 1 10.16 3.067 8.65 8.65 0 0 1 2.582 1.289c.742.617 1.727 1.629 1.84 2.746.101.87-.313 1.699-1.2 1.969-.14.054-.284.113-.382.07-.774.14-1.586-.031-2.5-.246-3.582-.89-7.063-2.149-10.457-3.61-1.899-.816-7.02-3.492-9.918-5.566l-.027-.07c-8.407 2.36-16.801 4.965-25.364 7.968 6.25.32 16.297 1.032 19.563 1.551l1.57.2c3.168.476 6.25 1.148 7.492 3.636.27.473.254 1.055-.031 1.586-.285.527-.797.899-1.398 1.055-.43.172-.883.27-1.372.297-1.527.113-3.253-.274-4.808-.649l-13.426-3.996c-2.469-.59-7.094-1.808-10.375-2.984-.473 1.101-1.414 2.054-2.555 2.511l-.074.028c-1.71.683-3.836.539-5.765.066-2.313.84-4.668 1.781-7.024 2.719-.34 1.215-.726 2.527-1.07 3.742.113.285.156.598.27.883 4.183.32 8.35.812 12.488 1.644.543.114 1.054.157 1.668.243 1.914.23 4.097.52 5.425 1.562.356.274.641.574.813 1 .113.29.125.531.07.801-.172.816-1.086 1.43-2.086 1.828-.5.2-1.027.324-1.554.453-4.082.969-8.594-.379-12.5-1.469l-.743-.203-1.113-.3-.742-.2c.426 1.07.781 2.172.355 3.586-.375 1.14-1.058 1.91-1.988 2.282-.14.058-.383.07-.527.128.031.07.058.141.086.215l.343 1.27c.028.07.028.07-.015.172-.188 1.812-2.184 3.437-4.383 4.98-.3.285-.602.57-1.027.738-.258.188-.473.274-.758.387-1.242.828-2.457 1.727-3.184 2.594a7.342 7.342 0 0 0-1.199 2.387c-.332 1.039-.687 2.011-1.816 2.71a136.568 136.568 0 0 1-9.727 14.813l.645.984 1.468-.668c7.223-3.464 14.633-7.082 19.239 1.348.925 1.7 1.34 3.36 1.68 5.043.241 1.23.628 2.399 1.011 3.57.145.36.316.786.586 1.258 1.055 2.23 2.664 5.645.637 7.613-.297.286-.668.598-1.028.743-1.425.57-2.91-.246-4.195-.977a7.876 7.876 0 0 1-1.055-.574c-2.156-1.043-3.582-1.3-5.41-1.317 4.125 3.075 8.418 5.75 12.684 8.352 3.48 2.09 6.82 4.234 10.015 6.438 1.301.144 2.743-.184 4.11-.48.703-.114 1.472-.255 2.101-.34.942-.13 1.825-.4 2.711-.669 1.242-.414 2.555-.855 3.996-.77 4.637.223 9.758 4.141 11.055 8.427.758 2.511.582 5.398.453 8.183-.113 1.785-.129 3.613.028 5.453.054.559.183 1.086.312 1.614.356 1.515.7 2.789-1.984 3.94l-.145.06c-2.14.851-3.797-.391-5.32-1.524-.586-.426-1.172-.855-1.871-1.156-1.297-.559-2.625-.774-4.051-1.035-1.43-.258-2.856-.516-4.254-1.118-4.437-1.789-6.875-5.207-6.973-9.804-.015-1.07.07-2.098.23-3.156.388-2.97.774-5.938-1.597-7.313-.097-.043-.129-.113-.156-.184-2.938-1.976-6.02-3.89-9.102-5.808-2.98-1.875-6.035-3.719-9.004-5.766 1.286 1.973 2.254 3.989 1.97 6.586-.216 1.742-.532 3.442-1.016 5.125 1.023 2.156 1.996 2.516 3.195 3.031.84.243 1.598.688 2.308 1.23 3.012 2.36 3.68 6.731 3.008 9.813-1.129 4.84-3.644 7.668-7.14 11.133-.645.672-1.157 1.457-1.602 2.211-.914 1.442-2.012 3.04-3.582 3.668-.285.113-.672.184-.957.297-3.98.598-5.309-4.59-6.402-8.79-.328-1.44-.727-2.855-1.14-3.683-1.255-2.73-5.177-11.105 2.034-14.808 1.04-.5 2.184-.953 3.281-1.309 2.2-.715 4.47-1.453 5.97-3.293.042-.101.14-.058.21-.086a33.71 33.71 0 0 0 .903-4.582c.3-2.773-1.012-4.816-2.61-7.16l-.27-.469-.027-.074c-.941-.7-1.855-1.328-2.824-2.101-.242.015-.414 0-.656.015-4.613.266-7.852-1.426-10.36-5.226-1.5-2.301-1.168-4.172-.78-5.899.054-.27.085-.613.14-.883a27.764 27.764 0 0 1-1.98-3.101 128.499 128.499 0 0 1-8.528 9.941c5.566 4.82 7.715 17.461 9.012 22.988-2.996-2.945-7.492-4.05-10.703-6.91-2.34-2.129-4.22-5.601-5.004-9.43-1.157 1.044-2.243 2.055-3.399 3.098.457 2.797.926 5.426 1.324 8.082 1.282 5.285 5.59 10.274 10.04 14.38 12.675-2.657 15.703 19.238 21.21 25.57-3.082-3.989-6.976-6.079-11.101-8.739-6.121-3.933-8.043-8.133-10.438-15.379-3.496-3.156-6.847-6.789-9.027-10.804a159.454 159.454 0 0 1 1.059 24.007c.78 3.415 2.492 6.457 4.976 8.946 4.477 1.691 8.934.824 12.914 2.71 5.508 2.606 9.657 11.137 13.992 15.368-9.16-5.95-20.28-2.504-26.539-15.906-2.41-2.102-4.336-4.649-5.605-7.618-.285 4.668-.918 9.31-1.79 13.961-.1.786-.3 1.532-.472 2.344.426 3.555 1.508 7.098 2.664 10.2 4.106 11.113 3.489 18.48-3.64 27.785-1.766-7.743-4.63-15.13-3.582-23.497.629-5.054 1.972-9.98 3.375-15.175.156-.641.242-1.258.398-1.899.719-3.597 1.262-7.21 1.606-10.91-1.114 1.77-2.657 3.297-4.2 4.824-2.07 2.067-4.254 4.266-5.199 6.875.457 4.871 1.582 9.145-2.187 13.793-2.586 3.27-6.512 4.008-9.465 6.762-1.946 1.766-2.957 4.406-4.645 5.992 1.047-4.64 4.543-8.937 6.203-13.488 1.516-4.082 3.157-10.121 8.868-13.645 1.101-2.84 3.285-5.035 5.472-7.234 2.528-2.582 4.938-5.035 5.41-8.203l.118-1.371c.011-.172.027-.344.042-.516-.03-.07.043-.098.043-.098.36-8.84-.164-18.238-1.64-28.578l-.059-.144c-.027-.07-.027-.07-.058-.14l-.028-.075c-.14-.77-.242-1.64-.414-2.484-.629 5.468-2.402 10.98-4.43 15.433-.03 4.07-.718 8.567-2.445 11.906-1.488 2.91-4.543 4.793-5.886 7.649-1.641 3.555-.903 7.894-.563 11.652-2.05-6.8-5.629-14.316-5.383-21.37.145-5.024 3.942-7.95 8.297-10.102-3.48-.43-6.594-2.418-9.187-4.364-.586-.43-1.098-.886-1.657-1.246-.328.215-.656.43-1.011.57a19.42 19.42 0 0 1 1.109 2.786c.242.816.414 1.66.512 2.53.043.313-.114.54-.399.657l-.14.055c-.844.172-1.743.2-2.641.226 1.211 2 2.367 4.274 2.906 6.872.043.316-.086.613-.37.73-.071.027-.145.055-.243.012-3.34-.075-6.781-.192-10.047-1.125-2.797-.79-5.437-2.22-7.664-4.063-.258 3.082-1.371 6.094-3.172 8.637-.043.098-.156.226-.328.21-.14.06-.383.075-.512-.042-2.613-1.36-4.824-3.375-6.593-5.735-2.196.715-4.454 1.282-6.707 1.852-1.442 1.57-3.04 2.953-4.739 4.293-.074.027-.144.055-.187.156-.14.059-.242.016-.414 0-.172-.015-.399-.172-.457-.316a16.389 16.389 0 0 1-1.024-2.57c-64.73 12.996-131.746-21.622-157.117-85.2-4.89-12.87-8.094-26.086-9.273-39.609Zm295.286-41.074c.715-2.356 1.746-9.727 1.578-12.637-1.113 2.598-2.445 5.281-3.774 7.961l-.156.23c-2.355 4.668-2.746 8.88-3.015 12.551 2.355-1.77 4.554-5.379 5.367-8.105Zm7.574 9.644c3.34-1.996 5.441-3.992 6.355-5.847.512-1.2.598-2.227.313-2.528-.156-.183-.64-.156-1.211.07l-.144.06c-2.926 1.167-5.223 3.905-7.481 6.546-1.371 1.54-2.715 3.152-4.168 4.477a34.693 34.693 0 0 0 6.336-2.778Zm-18.871 5.793.3.543c.4.586.759 1.274 1.087 1.887.183-1.813.027-3.656-.157-5.57-.113-1.114-.156-2.258-.21-3.227-.032-.902.042-1.758.015-2.656.059-1.93.016-3.899-.242-5.785-.156-1.43-1.125-4.27-1.695-4.457 0 0-.215.086-.442.757-1.586 3.696-1.902 8.293-.848 13.008.54 2.184 1.254 3.973 2.192 5.5Zm6.656 22.27c3.754-.75 10.832-2.914 10.735-6.27-.028-.902-.457-1.144-.555-1.187-.758-.442-2.27-.086-3.84.539a31.832 31.832 0 0 0-4.824 2.422c-.328.215-.613.328-.73.457-2.669 1.394-6.25 2.992-9.993 3.574 3.399.633 6.508.96 9.207.465Zm-2.754 114.8a15.248 15.248 0 0 0-.258 3.083c.098 4.187 2.32 7.273 6.387 8.96 1.3.56 2.7.747 4.055 1.036 1.426.257 2.851.515 4.25 1.117.73.371 1.387.773 2.07 1.246 1.426 1.086 2.797 2.031 4.508 1.348l.07-.032c2.043-.894 1.887-1.496 1.489-2.91-.13-.527-.286-1.129-.344-1.687-.2-1.742-.067-3.696.02-5.555.156-2.71.257-5.566-.442-7.937-1.125-3.86-6.016-7.622-10.211-7.766-1.273-.074-2.441.308-3.684.723-.93.37-1.914.597-2.855.726-.629.082-1.328.195-2.098.34-.984.227-2 .383-3.039.469 4.32 3.16 8.371 6.675 11.696 11.066.156.184.101.457-.086.613l-.07.028c-.216.086-.415 0-.544-.114-3.168-4.203-6.96-7.492-11.054-10.496.656 1.645.34 3.758.14 5.743Zm-20.207-6.261c-.043.098-.015.168-.058.27-.883 3.167-1.727 6.238-1.403 9.75-.015.171-.097.374-.312.456-.074.032-.074.032-.145.059-.242.016-.469-.145-.484-.387l-.027-.07c-.34-3.758.515-6.996 1.43-10.094.015-.172.128-.3.144-.472-1.598 1.382-3.625 2.109-5.512 2.777-1.098.355-2.195.71-3.168 1.183-4.394 2.25-4.969 6.622-1.66 13.665.469.972.84 2.312 1.195 3.828 1.028 3.816 2.25 8.543 5.39 8.117 1.813-.227 2.884-1.895 3.884-3.535.488-.86 1.101-1.602 1.714-2.34 3.383-3.34 5.856-6.067 6.899-10.703.656-2.914-.04-6.942-2.664-8.957a5.608 5.608 0 0 0-2.082-1.075c-1.043-.332-2.113-.73-3.14-2.472Zm-122.277-32.938c.031.07.101.043.129.114.484.386.969.773 1.457 1.16.64.57 1.312 1.215 1.91 1.887.285.296.57.597.785.925a18.433 18.433 0 0 0 2.125 2.219c.84.656 1.727 1.215 2.695 1.574 2.543-.683 5.211-.84 7.778-.62a4.018 4.018 0 0 1-.028-.9c.059-.273.145-.472.301-.698-2.238-1.262-4.238-2.95-5.933-4.922-1.7-.73-3.426-1.118-5.239-1.305-1.468-.156-2.953-.145-4.422.11-.171-.016-.386.07-.53.128-.356.14-.641.258-1.028.328Zm30.906 16.07c-.074.028-.144.055-.242.012-.074.032-.172-.011-.246.016-.04.102-.012.172-.082.2-1.328 1.44-2.43 3.038-3.2 4.84a18.954 18.954 0 0 0-1.675 8.448c.043 1.145.156 2.258.441 3.387.215.742.582 2.086 1.54 2.2.644.16 1.3-.27 2.171-1.196a16.939 16.939 0 0 0 4.14-9.934c-1.097-.886-1.968-2.03-2.48-3.316-.57-1.43-.554-3.258-.367-4.656Zm39.41 12.512c.313.371.528.7.77 1.098a168.21 168.21 0 0 1 2.457-1.723c-1.086.184-2.184.125-3.238-.035-.075.031-.102-.043-.102-.043-.043.102-.059.274-.172.403.129.113.23.156.285.3Zm12.907-9.129c-.399-2.242-.868-4.453-1.422-6.882a11.063 11.063 0 0 1-3.801 2.507c-1.781.715-3.711 1.067-5.649 1.18-.074.027-.144.059-.246.016.016 1.484-.14 2.953-.3 4.426.101.043.23.156.328.199 1.754 1.289 3.238 2.933 4.465 4.762 2.285-1.743 4.539-3.551 6.625-5.38.058-.269.015-.581 0-.828Zm15.777-14.988c.2-.328.36-.558.484-.86-.328.216-.656.43-1.082.602-.285.114-.5.2-.816.239-.727.043-1.485.015-2.223-.188-3.597-.715-6.98-1.52-10.262-3.11.157.602.344 1.274.426 1.9.074.8.113 1.53.043 2.386a41.447 41.447 0 0 1 3.696 4.074c1.496-.183 3.054.188 4.335.918a89.148 89.148 0 0 0 5.399-5.96Zm20.226-32.254c-.113-1.941-.855-3.8-1.652-5.8-.601-1.5-1.258-3.141-1.57-4.758a13.212 13.212 0 0 0-.184-1.082l-.015-.246c.015-.168-.07-.383-.028-.485l-.07-.8c-.027-.485-.102-.872-.172-1.255-.027-.074-.055-.144-.07-.386-.043-.317-.157-.602-.172-.844l-.086-.215a6.852 6.852 0 0 0-2.422-3.586c-.031-.07-.102-.043-.129-.113 0 0-.027-.074-.101-.043l-.13-.117c-.097-.043-.124-.113-.124-.113-2.371-1.79-4.98-2.735-7.493-2.81-3.34-.073-6.18 1.31-8.078 2.563a18.487 18.487 0 0 1 1.965 7.415c.028 1.73-.133 4.855-1.988 6.425-.3.285-.656.426-.984.64-.93.372-2 .384-2.91.169a10.165 10.165 0 0 1-4.395-1.89c.996 1.257 1.894 2.472 2.62 3.675.888 1.383 1.587 2.512 2.185 3.598.714.132 1.27.488 1.71.972.602.672.887 1.801.356 2.758l-.129.3c-.586.813-1.297 1.513-2.039 2.142a15.066 15.066 0 0 0 4.918 4.66c.031.07.101.043.129.113 1.812 1.016 3.57 1.477 5.195 1.406l.07-.027c.602-.156 1.13-.285 1.7-.516.5-.199 1.043-.496 1.515-.77 1.383-.882 2.711-1.91 4.012-3.007l.297-.285a71.3 71.3 0 0 0 1.871-1.738c1.684-1.586 3.414-3.27 5.668-4.25.285-.528.543-1.13.73-1.7Zm-1.562-15.937.027.07c.13.113.215.328.27.473.187.258.344.441.457.726l.601 1.086.082.215c.032.07.059.145.086.215.145.355.329.613.473.973-.043-.317-.113-.7-.086-1.043l-.043-.317c-.07-.797-.113-1.527-.285-2.37a5.78 5.78 0 0 0-.113-1.114c-.043-.727-.184-1.5-.399-2.242-.027-.07-.027-.07.016-.172-.426-1.899-1.055-3.469-1.926-4.613-.742 1.457-1.812 2.71-2.941 3.824 0 0 .027.07.101.043.383.343.77.687 1.028.914.027.07.097.043.128.113.696.715 1.426 1.504 2.008 2.348.059.14.274.468.516.87Zm-2.05-8.871.343-.801c.226-.672.457-1.34.586-2.055.242-1.258.312-2.527.187-3.883 0-.414-.043-.73-.113-1.117-.258-1.883-.656-3.71-1.297-5.527-.215-.742-.5-1.457-1.012-1.914-.23-.156-.488-.387-.687-.473a7.906 7.906 0 0 0-1.512-.472c-.097-.043-.097-.043-.172-.016l-.742-.2-1.012-.257c-.37-.102-.742-.2-1.113-.3-1.383-.36-2.77-.72-4.222-1.048-3.782-.976-8.579-2.21-12.688-.898a13.88 13.88 0 0 0-4.867 2.933 5.55 5.55 0 0 1 .398 2.243c0 .414-.074.859-.246 1.257-.012.172-.129.301-.14.473-.043.098-.086.2-.13.297-.343.8-.816 1.484-1.257 2.242l-.356.559c-.386.484-.672 1.011-1.03 1.566-.599.984-.97 2.129-1.13 3.184-.113.543-.129 1.129-.14 1.714.254-.187.539-.3.828-.414.883-.27 1.738-.199 2.554-.023 3.965.816 7.317 3.207 9.5 6.805 2.114-1.34 5.168-2.805 8.75-2.746 2.653.02 5.293 1.035 7.778 2.695a16.082 16.082 0 0 0 2.941-3.824Zm11.316 3.27c-.258.183-.446.34-.7.527-.543.296-.988.64-1.43.98.145.36.387.758.528 1.117l1.07-.43c.172-.812.328-1.453.532-2.195Zm4.12-23.262c-.558-.356-1.156-.614-1.753-.872-3.602 4.664-7.414 9.004-11.211 13.168.027.07-.016.172.012.243 1.57-.211 2.812.203 4.44.96l1.099.473c1.668.66 3.394 1.047 5.207 1.235 1.046-5.055 1.746-10.137 2.207-15.208Zm-18.284 2.496c.472.14.94.285 1.44.5.329.199.63.328.915.629 2.07-2.067 3.969-4.153 5.355-6.278-2.71 1.496-5.27 3.18-7.71 5.149Zm8.167-6.903c-1.097-.472-2.27-.504-3.394-.219-1.559.454-3.016 1.368-4.297 2.293l-2.601 1.782c.171.843.273 1.715.37 2.586l.27.058a50.818 50.818 0 0 1 9.652-6.5Zm4.07 20.153c.614.5 1.157 1.03 1.77 1.53.371-.316.743-.628 1.043-.913-.957-.113-1.87-.332-2.812-.617Zm.802 2.414c-2.383-2.032-5.04-4.118-7.692-4.137.055.973-.058 1.93-.172 2.887a8.491 8.491 0 0 1 1.598 1.101c1.2.93 2.21 2.016 3.008 3.188a124.59 124.59 0 0 1 3.258-3.04Zm-35.852-30.328c.242-.016.387-.07.602-.157.312-.043.597-.156.668-.183 1.316-.442 2.671-.985 3.898-1.64.398-.243.828-.411 1.258-.583a38.162 38.162 0 0 0 12.89-9.785c1.344-1.61 2.555-3.336 3.715-5.207l1.114-1.77c.199-.328 1.171-2.039 2.011-3.453-9.008 6.66-17.601 14.563-26.156 22.778Zm25.746-24.02c-4.613.68-8.496 3.39-11.18 5.785a78.985 78.985 0 0 0-5.183 5.465l-7.082 7.96c-1.055 1.083-1.914 2.255-2.84 3.454 8.578-8.148 17.176-16.047 26.285-22.664ZM223.113 155c-.328.215-.586.398-.914.613.301.13.555.36.856.489 1.84 1.085 3.754 2.144 5.68 3.03a88.693 88.693 0 0 1-5.407-4.218 8.2 8.2 0 0 1-.215.086Zm-4.312 1.637c-.985.23-1.969.457-2.953.683 0 0 .027.07-.043.102-.043.098-.114.125-.227.254-1.488 2.086-2.586 4.512-3.246 7.008 1.969 2.03 4.05 3.933 6.18 5.734 1.172-4.523 2.113-9.207 2.672-13.82-.297-.13-.454-.313-.754-.442-.399.242-1.028.324-1.63.48Zm-3.164-9.172c-1.48-1.64-2.922-3.387-4.364-5.13a3.094 3.094 0 0 1-1.656 2.067 34.529 34.529 0 0 0 4.621 5.364c.258.226.485.382.715.543.012-.586.172-1.23.328-1.871.028-.344.23-.672.356-.973Zm-8.297 15.902a29.777 29.777 0 0 0 3.594 6.516 18.91 18.91 0 0 1 .472-4.414c-.855-.899-1.64-1.828-2.453-2.828-.488.441-.988.64-1.613.726Zm-.684-3.37c-.031-.075-.129-.118-.187-.259-.043.098-.012.172-.086.2.031.07.031.07-.012.171.07-.027.211-.086.285-.113Zm-.73 3.355c-.172-.016-.442-.075-.613-.086.097 3.77.851 7.523 2.32 10.996 1.054-.668 2.14-1.27 3.34-1.582.015-.172-.043-.313-.028-.485-.027-.07-.129-.113-.156-.187l-.031-.07c-2.137-2.872-3.707-5.56-4.719-8.301-.027-.07.016-.172-.113-.285Zm-1.914-.23c-.098-.044-.242.01-.41 0-3.86 4.847-6.086 10.874-6.192 17.042l-.043.098c.215.332.387.758.602 1.086.742 1.445 1.453 2.816 2.265 4.23l.801-1.726c1.27-2.825 2.844-6.352 5.555-8.676a32.995 32.995 0 0 1-2.578-12.055c.031.07.031.07 0 0Zm7.82 7.976c.027.07.027.07.125.113l.031.07c.184.258.399.586.684.887l.027.07c1.442-.324 2.84-.55 4.242-.777.243-.016.485-.031.727-.043-1.797-1.602-3.723-3.316-5.508-5.09-.3 1.527-.398 3.14-.328 4.77Zm11.035-13.598a107.857 107.857 0 0 1-2.758 13.605c4.094-.308 9.02-.203 13.141 2.458.656.398 1.2.93 1.742 1.457.317-3.77.586-7.438.66-11.196l-2.324-1.058c-3.523-1.575-7.105-3.293-10.46-5.266Zm13.293 18.793a15.312 15.312 0 0 1 4.899-2.863c4.496-1.383 9.46-.133 13.441.925l.941.29c.258-.188.516-.372.774-.56-1.043-1.155-2.227-2.257-3.41-3.358-1.442-1.329-2.953-2.63-4.266-4.258-.969-1.188-2.71-4.305-1.754-6.258.16-.23.317-.457.543-.715-.398.242-.726.457-1.156.629-.426.172-.828.414-1.254.582-.898.441-1.8.883-2.727 1.254-.43.172-.855.344-1.386.473-.14.054-.457.097-.84.168-.602.156-2.285.496-2.926.753-.117.13-.16.23-.3.286.011 4.382-.16 8.511-.579 12.652Zm11.883-15.426c-.543 1.13.527 3.602 1.594 4.832 1.187 1.512 2.699 2.813 4.11 4.074 1.898 1.645 3.85 3.43 5.19 5.547a26.696 26.696 0 0 0-1.738-6.843c-1.34-3.36-4.531-8.047-7.414-8.22-.344-.03-.73.04-1.113.114a1.3 1.3 0 0 0-.629.496Zm-40.05 35.86c.741-.215 1.44-.329 2.112-.512 1.926-.356 3.91-.567 5.852.148 1.64.586 3.195 1.79 4.523 3.66l4.122.59c.058-.27.144-.468.3-.699.2-.328.457-.512.743-.625.285-.117.527-.129.828 0 .199.086.355.27.515.457.754-1.629 1.914-3.082 3.41-4.094.258-.187.516-.37.801-.484-.027-.488.016-1 .059-1.516l.012-.172c-.028-.07.042-.097.015-.171a16.86 16.86 0 0 1 .16-3.954c.215-1.328.657-2.5 1.344-3.683.285-.527.64-1.086 1.027-1.57l.356-.555c.473-.688.844-1.414 1.215-2.14a1.47 1.47 0 0 0-.07-.802c-.114-.285-.301-.542-.485-.8-.7-.715-1.539-1.371-2.441-1.758-1.496-.645-3.082-1.09-4.766-1.164-1.098-.059-2.168-.043-3.238-.031-.102-.043-.172-.016-.313.043-.074.027-.101-.043-.246.011-1.281.102-2.539.27-3.894.399-.555.054-1.184.14-1.743.195-.554.059-1.183.145-1.742.2-.168-.016-.312.042-.41 0-.074.027-.074.027-.172-.016-.73.043-1.457.086-2.285.086-.414-.004-.828-.004-1.242-.004h-.828c-.168-.016-.34-.028-.512-.043a2.808 2.808 0 0 0-.93-.043c-.011.168 0 .414.016.656-.016.172.043.312.027.484.016.243 0 .414-.015.586a7.864 7.864 0 0 1-.114.957c-.53 3.442-2.457 5.867-4.714 8.504-.383.488-.797.903-1.114 1.356a70.056 70.056 0 0 0-3.441 4.851c-.313.457-.684 1.188-.371 1.559.312.37.742.613 1.21.758 0 0 .075-.028.102.043 1.457.328 3.153.23 5.48-.368Zm7.019 4.734c-.055-.559.058-1.102.37-1.555a3.408 3.408 0 0 0-.667-.23c-.945.129-2.344 1.183-3.742 5.137-.36.968-.543 1.957-.66 2.914-.098 1.199 0 2.484.457 3.625.027.074.097.043.054.144.258.64.656 1.227 1.055 1.813l.031.074.613.914c.055.14.157.183.215.328l.157.188c.328.613.753 1.269 1.082 1.882.414.832.925 1.703 1.484 2.473 1.039 1.574 2.238 2.504 3.48 2.918 2.356.719 4.88-.621 5.594-2.977.145-.472.145-.886.215-1.328.004-.828-.238-1.644-.484-2.457l-.098-.457c-.086-.215-.145-.36-.156-.601a5.645 5.645 0 0 0-.059-.141l-.07.027c-.059-.144-.043-.316-.102-.457-.113-.285-.668-1.472-1.34-2.53l-.21-.33c-.243-.398-.489-.8-.801-1.17l-1.125-1.372a21.638 21.638 0 0 0-2.098-2.145c-1-.843-1.969-1.617-2.652-2.918a3.895 3.895 0 0 1-.543-1.77Zm1.683 1.316c.598 1.086 1.34 1.7 2.438 2.586a17.024 17.024 0 0 1 2.07 2.075c-.058-.145-.113-.286-.172-.43-.07-.387.172-.813.586-.813-.199-.5-.457-1.144-.242-1.644.113-.54.941-.953 1.313-.442-.114-.699-.254-1.468.101-2.027.043-.098.156-.227.274-.355l-5.153-.676c-.441-.074-.844-.246-1.27-.488-.23.257-.359.558-.285.94-.003.415.168.845.34 1.274Zm12.493 18.036c.316-.043.601-.157.914-.2.77-.14 1.468-.254 1.925-.77.118-.128.274-.355.489-.44.285-.114.5-.2.812-.243l1.598-.14c1.285-.098 2.57-.2 3.855-.297.313-.043.555-.055.871-.098l.942-.129c.242-.012.554-.055.828 0-.516-.871-1.086-1.883-1.856-2.984-.882-1.387-1.937-2.79-3.125-4.301a.67.67 0 0 1-.398.656l-.07.028c-.286.113-.614-.086-.727-.372l-.074.028c-.34.387.113 1.113.187 1.5.028.07-.015.172.012.242 0 .414-.172.812-.457.93-.215.082-.484.027-.7.113-.757.383.356 1.926-.429 2.238-.285.117-.613-.086-.87-.312-.384-.344-.74-.617-1.126-.957-.516.78-.316 2.11-1.2 2.382-.5.2-1.015-.257-1.241-.832-.387 1.317-.903 2.512-1.559 3.77l-.07.027-.043.102c-.156.226-.242.43-.371.726.715-.285 1.285-.511 1.882-.667Zm-3.297 5.207c.011.246.125.53.285.714.496.63 1.383.774 2.066.832.074-.027.242-.015.242-.015a5.291 5.291 0 0 0 1.528-.113 34.51 34.51 0 0 1 1.527-.11c.344.027.688.055 1.027.086.446.07.957.113 1.442.086.699-.113 1.273-.34 1.887-.668l.425-.172c1.586-.797 3.27-1.55 4.668-2.61a7.74 7.74 0 0 0 2.23-2.292c.044-.102.114-.13.184-.16.2-.328.043-.926-.242-1.227-.285-.3-.613-.5-1.055-.574l-.171-.012c-.516-.043-.899.028-1.485.012l-.8.07c-.243.016-.555.055-.868.098-1.285.101-2.57.2-3.855.297l-1.668.168c-.074.03-.172-.012-.172-.012-.074.027-.117.129-.188.156l-.113.13c-.687.769-1.77.952-2.683 1.151-.313.043-.528.13-.844.172-1.453.496-3.313 2.067-3.367 3.993Zm7.93-23.04c.429 1.899 1.21 3.657 2.394 5.172.344.446.687.887 1.07 1.23 1.371 1.36 3.125 2.231 5.024 2.634 1.183.273 2.125.144 2.867-.485 1.043-.91 1.586-2.867 1.488-5.394a16.684 16.684 0 0 0-2.008-7.313c-1.984-3.515-5.191-5.96-8.988-6.765a3.9 3.9 0 0 0-1.898.011c-.57.227-.985.64-1.141 1.285l-.031.34a11 11 0 0 0 .027 2.973c.184 1.5.441 2.969.77 4.414.128.527.257 1.055.312 1.613.027.07.059.145.113.285Zm-2.567-6.43c-.07.032-.14.06-.184.157a9.247 9.247 0 0 0-2.543 2.754l.075-.027c.554-.055 1.183.273 1.48.816.242.398.445.898.856.898.214-.085.359-.14.574-.226.07-.027.14-.059.242-.016.098.043.172.016.27.059-.297-1.371-.598-2.742-.727-4.098a.557.557 0 0 0-.043-.316Zm-2.805 19.505c-.187.16-.3.285-.484.445-.074.027-.074.027-.043.098-.145.058-.258.187-.473.27.102.456.2.913.227 1.402.273-.774.574-1.473.773-2.215Zm-2.57-1.457-.711-.13.055.141.03.07.142.36c.085.215.07.387.156.602-.07-.387.101-.79.328-1.043Zm28.594 17.324c-.457.098-.985.226-1.47.254l-.073.031-.14.055c-2.185.129-4.34-.504-6.18-1.59-.102-.043-.102-.043-.13-.117-2.07-1.243-3.824-2.946-5.207-4.961-1.382.886-2.867 1.726-4.34 2.394l-.425.172-.715.285c-.5.2-1.027.328-1.555.457a5.676 5.676 0 0 1-1.687-.074c-.34-.031-.613-.086-.926-.043l-1.457.082c-.484.028-.871.098-1.285.098.031.902.101 1.7.101 2.527.098 3.774-.203 6.957-.82 9.77.316.37.602.672.957.941 4.852 4.692 10.016 6.024 15.781 7.203.57.184 1.157.2 1.782.114.629-.083 1.285-.512 1.87-.91 5.497-4.266 7.571-9.645 6.348-16.86-.144.059-.289.113-.43.172Zm-16.782 24.914c-.941-1.113-1.882-2.227-2.968-3.285.03.07-.043.097-.012.172-.274 2.84-.633 5.882 1.437 7.539.254.23.625.328 1.04.332-.07-1.63.132-3.2.503-4.758Zm-3.68-5.902c0-.414-.027-.899-.027-1.313-.199-.914-.37-1.758-.64-2.64-1.614-.93-3.211-2.032-4.551-3.32.098.456.227.984.426 1.487l.101.04c1.27 2.144 2.98 3.945 4.692 5.746Zm-6.296-19.512c-.031-.902-.059-1.8-.059-2.629-.953-.113-1.781-.531-2.41-1.273-.312-.372-.484-.801-.586-1.258-.027-.07.043-.098.016-.172l-.028-.07c-.113-.7-.085-1.458.145-2.13.312-.87.77-1.796 1.312-2.511l.313-.457c.086-.2.246-.426.332-.625-.059-.559-.188-1.086-.273-1.715-.125-.527-.157-1.016-.286-1.543l-.07-.387c-.2-.086-.285-.3-.371-.511.129.527.215 1.156.273 1.71-.015 1.829-.816 3.555-2.257 4.712-.371.312-.871.511-1.274.753a6.017 6.017 0 0 1-3.808.2c-1.586-.446-2.97-1.633-4.164-3.391-.586-.844-1.028-1.742-1.543-2.613-.329-.617-.657-1.23-1.055-1.817l-.156-.187c-.059-.14-.157-.184-.215-.328l-.64-.985-.028-.07a8.311 8.311 0 0 1-.93-1.703l-.07.031c-5.738 2.621-10.067 6.914-11.68 11.781-.516 1.614-.785 3.211-.957 4.856-.172 1.64-.176 3.297-.148 5.023l-.028 1.586c.055 4.285.18 8.543 1.535 12.14.7 1.958 1.797 3.673 3.266 5.075l.328.2c.301.128.555.359.856.488 2.754 1.3 6.449 1.234 10.148-.075.57-.23 1.211-.484 1.785-.714l1.867-.91c2.086-.997 4.27-1.954 6.141-3.278.586-.398 1.14-.871 1.668-1.414 1.328-1.441 1.816-3.125 2.445-5.695.36-3.04.66-6.223.606-10.094Zm-39.531 25.133c-.157.226-.473.27-.63.5-.187.156-.242.425-.128.71a26.601 26.601 0 0 1 5.738-.132c.969-.887 1.785-1.957 2.426-3.04.613-1.155.785-2.386.515-3.687a7.216 7.216 0 0 0-4.167.34c-1.356.543-2.497 1.41-3.325 2.652-.386.485-.699.942-1.086 1.426.07-.027.098.043.172.016.442.07.797.758.485 1.215Zm11.714 5.925c2.04.758 4.067 1.688 5.836 2.805.496-.2.996-.398 1.47-.668.57-.23 1.112-.527 1.612-.726.141-.059.286-.118.426-.172-.113-.285-.27-.473-.383-.758-.242-.402-.586-.844-.828-1.242-.582-.844-1.281-1.559-2.168-2.117a5.28 5.28 0 0 0-1.199-.516c-.812-.172-1.668-.246-2.469-.176-1.242 0-2.48 0-3.695.07a6.956 6.956 0 0 1 1.398 3.5Zm2.297-4.812c.973-.055 1.93.062 2.84.277.403.172.871.313 1.2.516.8-.484 1.699-.93 2.585-1.2 1.211-.484 2.282-.91 3.211-1.695.184-.156.344-.386.473-.683-3.684 1.137-7.367 1.035-10.121-.27-.2-.086-.5-.215-.727-.37l-.07.027-5.04 1.265c-.515.785-1.026 1.57-1.671 2.242l.441.07.274.06c.34.027.71.128 1.082.226 1.8-.469 3.7-.48 5.523-.465Zm-5.035-3.703c.985-.227 2.043-.485 3-.781-1.2-.93-2.14-2.043-2.969-3.29l-.07.032.027.07a6.298 6.298 0 0 1 .012 3.969Zm-1.238-4.555c.156-.23.387-.488.543-.715-1.168-2.101-2.125-4.699-2.852-7.972-.183-.672-.27-1.301-.457-1.97a18.382 18.382 0 0 0-1.625 2.138c.13.53.156 1.015.211 1.574.07 1.21.043 2.383-.086 3.512-.23 1.5-.629 2.984-1.23 4.382 1.656-.828 3.656-1.21 5.496-.949Zm-6.371-14.105a13.568 13.568 0 0 1 1.594 4.004c.542-.715 1.085-1.43 1.656-2.07-.653-3.302-.938-5.673-.922-7.915-.441-.898-.785-1.758-1.125-2.613a16.934 16.934 0 0 1-3.645 6.008c.172.43.301.957.399 1.414.844-.172 1.527.3 2.043 1.172Zm4.664 1.949c.183 1.086.441 2.14.7 3.2.398 1.827.91 3.526 1.593 5.241-.77-3.172-.852-6.699-.906-10.152l.027-1.586c0-2.07.031-3.656.187-5.129.118-1.781.43-3.48 1.016-5.125 1.332-3.926 4.285-7.504 8.27-10.172-3.125 1.082-5.754 2.793-7.739 5.074a16.83 16.83 0 0 0-.883 1.102c-2.058 2.723-3.171 6.148-3.218 9.563-.043 2.171.242 4.542.953 7.984Zm22.469 15.875a16.168 16.168 0 0 1 2.84-.14c.617-.325 1.257-.583 1.828-.81a16.67 16.67 0 0 1 4.753-1.152c.243-.015.555-.058.77-.144a.81.81 0 0 0 .102-.785 3.389 3.389 0 0 0-.883-.97c-.36-.273-.785-.515-1.215-.757-.484.441-.973.883-1.484 1.254-.114.129-.329.215-.543.297l-.07.031a46.167 46.167 0 0 1-5.813 3.063c.074-.028-.07.027-.285.113Zm9.152-5.887c.355.274.758.446 1.14.785.56.36 1.028.918 1.254 1.489.286.714.2 1.742-.5 2.27-.113.128-.253.187-.468.269-.36.144-.672.187-1.086.187a14.485 14.485 0 0 0-4.012.938c2.871.343 5.594 1.16 8.219 2.351-.852-3.8-1.809-7.644-2.875-11.773a11.425 11.425 0 0 1-1.672 3.484Zm-4.598 7.137-.515-.047c-.07.031-.098-.043-.172-.012-.242.012-.512-.043-.828 0-1.926-.062-3.91.153-5.809.578a3.987 3.987 0 0 1-.957 1.54c-1.012.984-2.367 1.527-3.61 1.94-.644.255-1.285.513-1.898.84.64.571 1.211 1.173 1.711 1.802.215.328.426.656.64.984.528-.129 1.087-.184 1.684-.34.243-.016.457-.098.63-.086 1.741-.195 3.538-.254 5.366-.234 1.313-.028 2.625-.055 3.84-.125l.172.011c2.496-.168 6.906-.933 9.332-3.972l-.054-.14c-2.985-1.462-6.208-2.493-9.532-2.74Zm-1.422 18.617c2.012.274 3.582.063 4.782-.664-1.114-1.543-2.383-2.86-3.91-3.988-2.497-1.903-5.407-3.39-8.618-5.008l-.629-.328c-.312.039-.597.156-.914.199.032.07.086.211.188.254.055.144.183.258.242.402a.697.697 0 0 1-.016.586c-.113.13-.226.254-.37.313l-.071.027c-.387.07-.742.215-1.027.328-.5.2-1.07.426-1.543.7l-.715.285c.031.07.129.113.129.113l.23.156c.028.074.098.043.13.117 3.651 1.274 6.933 3.278 9.671 5.992a9.59 9.59 0 0 0 2.441.516Zm-12.902-5.367-.355-.274c-.356-.27-.711-.543-1.141-.785a27.67 27.67 0 0 0-5.363-2.664c-.032 1.172-.418 2.07-1.016 2.64-.3.286-.629.5-1.059.673-.355.14-.667.183-1.054.254.101.043.129.117.183.257l1.145 1.204c1.11 1.128 2.18 2.359 3.61 3.03.925.458 2.081.661 3.523.747.925.043 1.898-.012 2.77-.113l.241-.012c.485-.027.872-.102 1.055-.258.23-.254.274-.77.172-1.226-.313-1.2-1.184-2.344-2.71-3.473Zm-8.805-1.953c.532-.543.774-1.383.602-2.64-.098-.872-.441-2.974-1.938-3.614-.101-.043-.199-.086-.37-.102-.372-.101-.715-.129-1.087-.23l-.242.015c-.613-.085-1.156-.203-1.742-.218-1.71-.145-3.508-.09-5.25.11.441.487.742 1.03.426 1.483-.086.204-.297.286-.512.372 1.652 2.488 4.621 4.949 7.445 5.394.856.07 2 .031 2.668-.57Zm-12.136-10.309c-.086-.215 0-.414.113-.543.527-.543.984-1.054 1.387-1.71.113-.13.156-.231.27-.36a16.495 16.495 0 0 0 2.573-6.82c.157-1.059.184-2.23.102-3.274-.059-.555-.086-1.039-.215-1.57l-.027-.07c-.301-1.786-.957-3.43-1.824-4.985-.16-.187-.317-.375-.473-.558-.07.027-.14.054-.184.156-.043.101-.043.101-.117.129-.871.925-1.328 2.27-1.441 4.054-.043.926-.016 1.829.011 2.727.043.727.059 1.387.028 2.14.043.317-.016.587-.043.93l-.043.516c.027.07-.043.098-.016.168-.172 1.644-.515 3.273-1.156 4.77-.129.3-.344.8-.586 1.226l-.258.602c-.043.101-.043.101-.113.128-.043.098-.113.13-.188.157.188.672.086 1.457.528 1.941.527.29 1.183.274 1.672.246Zm-14.563-19.695c-.472-.145-.957-.113-1.469-.16-.414 0-.629.086-.742.215-.117.128-.203.328-.117.543a1.57 1.57 0 0 0 .102.87 5.79 5.79 0 0 0 .597 1.5c.114.286.27.473.387.758.539.942 1.11 1.957 1.582 2.93.297.543.625 1.156.926 1.7.957 1.773 1.867 3.644 2.965 5.359a17.01 17.01 0 0 0 5.035 5.36c.031-.759.316-1.7.945-2.2.371-.313.899-.442 1.367-.297.117-.543.258-1.012.375-1.555.387-1.73.828-3.312.371-4.87-.77-2.759-3.222-4.759-5.648-6.688-1.453-1.16-3.024-2.192-4.621-2.875-.7-.301-1.34-.461-2.055-.59Zm2.414 23.05c1.328.63 3.281 1.176 4.48.864v-2.07c-.011-.243 0-.414.06-.688-.641-.984-1.77-2.77-2.837-3.586-1.57-1.031-3.668-1.105-5.351-1.176-.586-.015-1.172-.03-1.77.125-.215.086-.36.141-.543.301a1.646 1.646 0 0 0-.43.582 1.7 1.7 0 0 0 .258 1.059c.055.144.157.187.211.328 1.43 1.914 3.739 3.144 5.922 4.262Zm-.215 1.329c-1.511-.059-2.984.613-4.238 1.195-2.012.969-3.898 2.05-5.695 3.352-.7.527-1.473 1.082-1.914 1.84-.446.753-.446 1.582-.145 2.125.457.73 1.5 1.058 3.196.96 3.613-.28 7.207-1.218 10.476-2.773.844-1.824 1.945-3.426 3.242-4.938l.145-.054c-.113-.285-.23-.574-.27-.887-1.543.285-3.398-.219-4.824-.89l.027.07Zm5.157-5.121c.27.472.582.843.824 1.242.246-.012.457-.098.601-.156l.07-.028c-.554-.355-1.081-.644-1.495-1.058Zm9.097 9.535c.274 1.3.371 2.586.301 3.855-.043.93-.215 2.157-1.172 2.871-.144.055-.285.114-.402.243-.356.14-.742.214-1.113.113a6.952 6.952 0 0 0 1.683 3.8c.914 1.044 1.942 1.958 3.055 2.673.453.316.883.558 1.238.832 2.598 1.53 5.352 2.832 8.207 3.761.469.145.613.09.613.09.043-.101.086-.203.055-.273.473-2.34-.394-5.14-2.293-7.614-1.398-1.843-3.137-3.3-4.879-4.761-.484-.387-.87-.73-1.355-1.114-1.442-1.332-2.766-2.789-3.938-4.476Zm-3.254 5.523c.098.043.227.157.399.172.3.13.941.285 1.312-.027.371-.313.586-.813.602-1.813.016-2.242-.457-4.87-.98-6.812-.044.097-.044.097-.118.129-.054.27-.043.511 0 .828-.043.512-.527.957-1.012.984a.993.993 0 0 1-1.101-.887c-.04-.316.016-.585-.098-.87-.258-.645-1.226-.587-1.812-.188l-.184.156c.028.07.082.215.04.313-.2 1.156-.372 3.214.155 4.742.485 1.215 1.227 2.242 2.34 2.96.055.141.258.227.457.313Zm-10.02-1.468c-.14.058-.284.117-.429.171-2.926 1.168-6.05 1.836-9.246 2.118-.629.086-1.242 0-1.887-.157l-2.441 1.965c-1.367 1.13-2.953 2.34-3.883 3.953-.926 1.614-1.387 3.368-1.758 5.34a28.632 28.632 0 0 1-1.07 4.152c5.723.864 11.617-.742 16.098-4.437.773-2.21 1.972-4.18 3.5-5.95-.114-2.359.304-4.843 1.117-7.155Zm-19.925 9.363c.227-.672.555-1.301.883-1.93 1.117-1.77 2.742-3.082 4.258-4.265.625-.497 1.183-.97 1.812-1.47-.43-.241-.812-.585-1.054-.984-.645-.988-.5-2.285.113-3.441.156-.23.242-.43.43-.586l-7.735.52c-.559.058-1.113.113-1.7.097-2.37 2.77-4.753 5.707-5.769 9.176-.144.473-.285.945-.43 1.414a20.587 20.587 0 0 1-1.015 3.055c-.242.43-.656 1.258-.398 1.484.156.188.683.059.925.047 3.04-.469 6.88-1.008 9.606-3.09-.028-.07 0 0 .074-.027Zm-3.434-13.371c.657-.016 1.313-.028 1.942-.114l9.36-.59c.144-.054.187-.156.331-.214 1.867-1.324 3.797-2.508 5.88-3.504a13.953 13.953 0 0 1 2.882-1.07c-1.809-1.016-3.508-2.16-4.75-3.817l-.055-.144a20.877 20.877 0 0 0-8.293.578c-4.77 1.324-8.906 4.218-11.605 8.027l-.043.102c1.125.543 2.453.757 4.351.746Zm5.336-24.157a22.055 22.055 0 0 1-2.511-.902c-.801-.344-1.598-.687-2.442-.933a21.068 21.068 0 0 0-3.597-.301l-3.309-.004c.254.64.828 1.242 1.469 1.812l4.879 4.762c2.195-.297 4.394-.18 6.535.207.543.117 1.012.258 1.555.375-.184-.258-.372-.516-.485-.8-.27-.473-.543-.946-.812-1.415-.543-.945-.91-1.875-1.282-2.8Zm1.114-.94c.027.07.054.14.086.214.328 1.027.726 2.027 1.265 2.969.274.472.543.945.785 1.343a18.372 18.372 0 0 0 1.668 2.317c1.727 2.043 3.797 3.703 6.137 5.004.14-.055.328-.215.469-.27.742-.215 1.472-.258 2.226-.226 1.586.03 3.47.187 5.094.949.074-.031.117-.13.258-.188-.371-.511-.742-1.027-1.04-1.57-1.128-1.785-2.108-3.629-2.995-5.43-.297-.543-.57-1.015-.867-1.558a20.02 20.02 0 0 1-2.286-1.16c-.328-.2-.683-.473-1.011-.672-.328-.2-.586-.43-.914-.63-.356-.273-.754-.445-1.184-.687-.2-.086-.398-.172-.57-.183-.473-.145-.942-.29-1.387-.36 0 0-.07.028-.098-.043-1.796-.359-3.609-.132-5.636.18Zm.324-19.095c-.473-.144-.973-.36-1.441-.5-.403-.172-.844-.246-1.243-.418.2 2.157.852 4.215 1.836 6.059a46.482 46.482 0 0 0 1.711 2.629c.844 1.07 1.57 2.273 2.227 3.5.441.902.812 1.828 1.113 2.785.242.816.527 1.531.84 2.316.172.43.414.829.683 1.301.715.13 1.383.36 2.083.66.101.043.199.086.328.2.527.285 1.058.57 1.543.957l.355.273c.328.2.586.43.914.629.129.113.328.2.457.312-.215-.328-.36-.683-.543-.941-.156-.187-.27-.473-.355-.687-.274-.47-.473-.97-.672-1.47-.2-.5-.254-1.058-.242-1.644-.028-.484.214-.914.488-1.27.457-.515 1.156-.628 1.64-.656 1.044-.082 2.028.102 3.067.434.574.184 1.172.441 1.77.7.402.171.828.417 1.156.616-.14-.355-.313-.785-.457-1.144-.114-.285-.227-.57-.27-.883-.156-.187-.312-.375-.469-.558-4.835-5.688-9.859-10.81-16.52-13.2Zm21.164.993c-.887-.97-1.871-1.985-3.168-2.543-1.473 2.738-1.703 6.308-.707 10.878.2.915.43 1.903.727 2.86.042.312.187.672.3.957.086.215.098.457.184.672.328 1.027.758 2.097 1.184 3.172l1.171.855c2.594 1.945 5.133 4.164 6.09 7.176-.015-.242.043-.512.028-.758-.012-.656-.055-1.383-.07-2.039-.028-.902-.083-1.871.003-2.898.098-2.032.715-3.602 1.63-4.63-.216-.742-.43-1.484-.642-2.226-.527-1.527-1.097-2.957-1.84-4.402-.273-.469-.472-.969-.812-1.414-1.172-2.098-2.566-3.942-4.078-5.66Zm5.86 6.19c.656 1.231 1.242 2.49 1.683 3.802 1.684-1.996 2.844-4.282 3.398-6.825.102-.37.43-.582.801-.484.2.086.399.172.414.418.215.742.5 1.457.785 2.168.399-2.312 1.172-4.523 2.442-6.523-.63.086-1.211.07-1.867.086-2.387 2.523-4.97 4.964-7.657 7.359Zm12.003-32.53c-.226-.985-.011-1.899.305-2.77-2.172.367-4.2 1.508-6.27 2.746-.613.328-1.125.7-1.742 1.028-3.582 2.84-6.91 7.148-10.18 13.257-.113.13-.128.297-.171.399-.043.101.043.312.129.527 2.093 4.63 7.289 8.106 12.625 8.625.27.059.613.086.925.043.414.004.828.004 1.317-.023.484-.032 1.039-.086 1.527-.114.2-.328.469-.687.77-.972 3.054-3.535 7.453-5.79 13.004-6.598l.07-.027c-.281-1.13-.399-2.242-.297-3.442.129-1.129.387-2.14.715-3.183 1.316-3.754 2.86-5.696 4.715-6.024.527-.125 1.226.176 2.152.633l.3.129c.329.2.727.371 1.098.473l.614.086c-.883-.973-1.926-1.715-3.094-2.16-2.012-.688-4.11-.348-6.293.19-.316.044-.672.188-.988.231l-.84.168c-.07.032-.145.059-.242.016-2.285.496-4.055.625-5.68.277l-.102-.043-.07.032a5.95 5.95 0 0 1-2.656-1.262c-.813-.586-1.367-1.356-1.64-2.242Zm1.801-2.953c-.387.898-.7 1.77-.457 2.582.098.457.313.785.629 1.156a4.7 4.7 0 0 1 .684-1.598c1.042-1.742 2.285-3.394 3.558-4.98.383-.485.77-.97 1.184-1.383 2.07-2.484 3.882-4.781 4.414-7.805.058-.273.113-.543.101-.789.012-.168.028-.34.012-.582-.027-.074-.012-.246-.043-.316-.082-.63-.125-1.356.387-1.727.515-.371 1.199-.312 2.012-.14.171.015.343.027.37.101h2.072c.726-.043 1.387-.055 2.113-.098l.172.016c.313-.043.656-.016.969-.055a44.408 44.408 0 0 1 1.742-.199c.387-.07.727-.043 1.113-.113 1.328-.2 2.614-.297 3.895-.395.101.043.242-.015.242-.015.172.015.246-.016.316-.043 1.141-.04 2.211-.055 3.309.004 1.785.117 3.512.504 5.14 1.261a10.161 10.161 0 0 1 2.766 1.961c-.043-.316-.156-.601-.27-.886-.085-.215-.241-.399-.355-.684a7.803 7.803 0 0 0-2.457-2.418c-3.922-2.574-8.789-2.54-12.785-2.184l-.484.028c-.414 0-.871.097-1.258.168l-.942.129a42.89 42.89 0 0 0-4.55.824c-.243.012-.532.129-.817.242-1.242.41-2.496.996-3.597 1.766-.141.058-.254.187-.371.312-2.696 2.156-4.227 5.582-5.61 8.535Zm6.945-46.665c-.07.032-.043.102-.043.102-8.922 8.117-12.898 20.965-9.777 31.89.27.473.441.903.715 1.372.43-5.969 2.629-11.649 6.398-16.301.102-1.2.375-2.383 1.016-3.469a1.69 1.69 0 0 1 .43-.586c-.016-.242.07-.441.058-.683.012-.172.098-.371.113-.543a.694.694 0 0 1 .458-.512c.242-.016.511.043.671.227l.313.37.941 1.118.13.113c.183.258.468.559.753.86.129.113.188.253.285.296.274.059.57.188.828.418a1.5 1.5 0 0 1 .43 1.07c.129.114.285.301.414.415.625.742 1.254 1.488 1.953 2.203.614-2.399 1.672-4.727 3.184-6.738l.203-.329.07-.027c-.172-1.258-.37-3.828-.34-4.172-.015-.242 0-.414-.015-.656l-1.54-1.371c-1.855-1.746-3.523-3.649-4.964-5.805-.914.613-1.785.711-2.684.738Zm-.82-12.425c.211 1.574.57 3.086 1.098 4.617a1.89 1.89 0 0 1 1.566 1.027c.36.688.43 1.488.399 2.242.187-.57.773-.968 1.398-1.054a70.486 70.486 0 0 1-4.461-6.832Zm17.875 14.316c-.258-.23-.441-.484-.7-.715a131.083 131.083 0 0 0-16.206-14.484c3.023 5.086 6.52 9.902 10.5 14.277a1.807 1.807 0 0 1 1.64-.656c.957.117 1.711.977 1.938 1.96a6.24 6.24 0 0 1-.027 2.415c.128.113.156.184.285.3.543-.3 1.14-.456 1.742-.613.527-.128 1.082-.183 1.555-.042.171.015.27.058.441.074.172.011.3.129.43.242 1.238.828.652 2.887-.16 3.957a93.057 93.057 0 0 0 8.96 6.691c-.687-.886-1.527-1.957-2.613-3.43-2.48-3.316-5.277-7.003-6.902-9.003-.313-.371-.625-.742-.883-.973Zm.969-.883c1.43 1.5 4.836 6.102 7.918 10.09 1.426 1.914 3.008 4.016 4.008 5.274.187-6.786.035-13.594-.504-20.336l-.059-.145c-3.937-2.402-7.973-4.848-11.625-7.781.297 4.27.45 8.597.262 12.898Zm-12.512-37.16c-.246 6.227 2.606 12.957 7.926 18.617.73.785 1.555 1.618 2.328 2.301a17.32 17.32 0 0 0 1.766 1.531c3.097 2.575 6.464 4.79 9.875 6.907l-10.954-14.59-2.14-2.875Zm7.363 5.18c-2.07-2.074-4.136-4.149-6.164-5.906-.097-.043-.156-.184-.254-.227l7.286 9.762 2.296 3.058 12.567 16.762c-2.68-7.957-7.844-15.086-13.477-21.121-.726-.785-1.527-1.543-2.254-2.328Zm52.391-3.684C243.993 42.906 168.398 8.15 99.941 30.668c49.309-5.188 97.278 23.367 115.95 70.16 1.738 4.356 3.191 8.828 4.43 13.383a90.089 90.089 0 0 1 4.894 5.418c3.793 4.531 7.101 9.504 9.367 14.976-.71-6.753-1.805-13.437-3.242-20.152-1.399-.187-2.567-2.289-3.75-4.633-.274-.468-.414-.828-.57-1.011l-.43-.66c-2.496-3.973-5.39-8.532-6.145-13.114-.441-2.972-.64-5.957-.523-8.984.086-1.442.144-2.957.258-4.328.043-.512.386-2.97.574-3.953.059-.274.242-.43.457-.516.215-.086.484-.027.672.23 5.433 6.36 9.238 14.036 11.078 22.16l.156.602c.442 2.14.809 4.313 1.008 6.469.156 1.844.043 4.457-.5 6a4.034 4.034 0 0 1-.957 1.539 186.145 186.145 0 0 1 3.27 20.64 38.73 38.73 0 0 1 .746-4.355l.129-.715c2.003-9.492 6.93-18.086 14.07-24.66 1.012-.984 2.125-1.098 2.824-.383.543.528.414 1.242.414 1.656-.215 1.743-.457 3.415-.875 5.07-1.2 5.696-2.418 11.563-4.875 17.016-1.285 2.582-2.684 5.297-4.613 7.723a19.388 19.388 0 0 1-3.254 3.035c-.727.457-1.387.887-2.14 1.27-.614.328-1.231.656-1.813 1.054.496 6.426.648 12.825.558 19.239a33.963 33.963 0 0 1 3.602-4.668l7.082-7.961c1.64-1.899 3.426-3.852 5.297-5.59 3.254-3.04 8.48-6.531 14.531-6.297.344.027.629.328.672.645-.016.168-.059.27-.102.37-.156.227-.687 1.184-1.257 2.239-1.13 1.941-1.926 3.254-2.098 3.656-.43.582-.785 1.14-1.117 1.77-1.156 1.867-2.442 3.62-3.754 5.304a40.002 40.002 0 0 1-11.352 9.086c.5-.199.985-.226 1.5-.183 4.051.203 7.59 6.578 8.559 9.004.512 1.289.926 2.531 1.226 3.902l2.153-1.441c1.43-.985 3-2.024 4.726-2.465 1.942-.528 3.91-.153 5.239.89.199.086.328.204.382.344 0 0 .032.07-.043.102.032.07.086.215.043.312l-.011.172c-1.43 3.055-4.043 5.836-6.871 8.703.273.473.5 1.043.699 1.543.5 1.457.926 2.946 1.11 4.442 3.456-3.778 6.968-7.832 10.253-12.04a14.387 14.387 0 0 0-.695-3.613c-.317-1.203-.586-2.5-.684-3.785a47.503 47.503 0 0 1-.953-12.125c.16-3.543.39-8.355 3.149-11.195.27-.356.668-.598 1.097-.77-1.863-10.683-4.57-20.78-8.449-30.496Zm-25.75 9.696c1.816-4.782 3.672-9.665 6-13.989-6.738 6.332-11.324 14.54-13.254 23.59l-.129.715a37.85 37.85 0 0 0-.742 4.355c-.086.614-.203 1.157-.316 1.7-.07.441-.145.882-.188 1.398.016.242-.07.441-.086.613 3.828-5.336 6.317-11.96 8.715-18.382Zm-7.285 18.64c.613-.324 1.156-.625 1.668-.996 1.101-.77 2.14-1.684 3.027-2.781 1.813-2.297 3.242-4.938 4.414-7.39 2.442-5.282 3.66-11.153 4.817-16.747.332-1.457.629-2.984.789-4.457-2.43 4.281-4.371 9.363-6.16 14.219-2.387 6.25-4.899 12.805-8.555 18.152Zm-16.5-57.926c-.055.274-.043.516-.059.688a191.208 191.208 0 0 0-.285 4.254c-.074 2.93.098 5.844.54 8.812.667 4.371 3.476 8.715 5.94 12.617l.43.657c.215.328.457.73.63 1.156.44.902 1.753 3.36 2.534 3.875.203-1.984-.097-4.184-.879-6.77-1.156-3.515-2.48-7.043-3.82-10.402-1.766-4.844-3.633-9.726-5.031-14.887Zm11.16 29.832c.258-1.43.273-2.84.117-4.27-.2-2.155-.539-4.257-.953-6.327l-.129-.528a52.1 52.1 0 0 0-8.937-19.289c1.367 5.086 3.261 10.043 5.101 14.856 1.27 3.387 2.664 6.887 3.778 10.5a27.217 27.217 0 0 1 1.023 5.058Zm47.168 31.114-.074.027c-.14.059-.211.086-.254.184-.145.058-.258.187-.371.316-2.485 2.48-2.645 6.852-2.778 10.465-.171 2.469-.07 4.996.243 7.437.543-1.953 1.156-3.937 1.726-5.824.688-2.012 1.375-4.023 1.86-6.125.042-.097.015-.168.058-.27.3-1.94.258-5.984-.41-6.21Zm.707 10.066c-.328 1.043-.688 2.012-.941 3.027-.832 2.485-1.66 4.97-2.188 7.582a9.396 9.396 0 0 0-.117 2.2l.027.07c.031.07-.012.172.016.242.113 1.113.37 2.172.656 3.301.168.84.383 1.586.484 2.457.743-1.043 1.555-2.113 2.27-3.227.23-5.226.117-10.48-.207-15.652Zm.004 18.465-.27-.059c-.343.387-.586.817-.898 1.274.297.129.668.226 1.07.398.043-.512.086-1.027.098-1.613Zm1.27 4.215a146.53 146.53 0 0 1-1.833 12.82 122.952 122.952 0 0 1 8.637-6.758c-.871-.73-1.668-1.488-2.469-2.246a46.727 46.727 0 0 0-4.336-3.816Zm18.62 8.719c.813-2.727-5.066-4.606-7.847-5.567-.57-.183-1.043-.328-1.34-.457-2.14-.8-4.754-1.746-7.191-2.68 1.097.887 2.082 1.903 3.136 2.891.926.871 1.856 1.742 2.754 2.543.356-.14.672-.184 1.086-.184 1.082.23 1.68 1.317 1.738 2.286 1.899 1.23 3.91 1.918 6.192 1.835.586.016 1.328-.199 1.473-.667Zm-7.328 7.972a81.055 81.055 0 0 0 6.371-6.02c-.171-.011-.316.044-.558.06-2.453.066-4.637-.634-6.606-1.837-.402.657-.828 1.243-1.43 1.813-1.054 1.082-2.21 2.125-3.511 3.222 2.012-.14 4.04-.039 5.137 1.262.316.371.543.946.597 1.5Zm-3.726 4.551a3.36 3.36 0 0 0 1.558-1.281c-1.457.496-2.957 1.093-4.41 1.593 1.028.086 1.996.032 2.852-.312Zm-5.336-.106 6.867-2.492c.043-.097.043-.097.113-.125.258-.187.555-.472.813-.656.101-.785.015-1.414-.328-1.86-.84-1.07-3.309-.831-5.32-.69l-.489.027a77.423 77.423 0 0 1-5.594 4.222c1.254.66 2.555 1.215 3.938 1.575Zm-1.957.7a26.689 26.689 0 0 1-2.695-1.16c-.13-.114-.329-.2-.457-.317-.258.188-.516.371-.77.559-.215.914-.5 1.855-.715 2.77 1.57-.63 3.14-1.255 4.637-1.852Zm-6.867 4.148-.211.086c.027.07.054.14.086.215a6.27 6.27 0 0 1 .125-.3Zm.324 13.867c.77-.144 1.441-.742 1.613-1.554.328-1.043-.043-1.973-.5-3.114-.113-.289-.2-.5-.285-.714l-.113-.286c-.399-1.004-.727-2.03-1.055-3.058l-.098-.457-.074-.387c-.156-.598-.34-1.27-.57-1.844-.242-.812-.512-1.699-.824-2.484-.286-.715-.543-1.356-.899-2.043l-.027-.07a14.348 14.348 0 0 0-1.399-2.258c-.855-1.317-1.996-2.516-3.222-3.52-.328-.199-.688-.468-1.114-.715-.101.372-.199.743-.37 1.145 1.324 1.457 2.136 3.285 2.722 5.785.027.07.027.07-.016.172.145.77.258 1.473.301 2.2.07.386.14.769.14 1.187.071.797.141 1.597.286 2.367l.043.316c.012.657.168 1.258.226 1.813l.086.629c.727.37 1.485.816 2.125 1.386.485.387.899.801 1.2 1.344.78.93 1.324 2.29 1.824 4.16Zm-.102 2.856-.312-1.2c-.086-.214-.117-.288-.13-.53-.128-.114-.284-.301-.273-.47-.027-.074.043-.101.086-.203-.453-1.554-.867-2.796-1.437-3.812-.3-.543-.672-1.059-1.156-1.445-.672-.641-1.426-1.086-2.254-1.5l-.07.027c-.075.027-.102-.043-.172-.016.5 1.461.925 2.946 1.28 4.457.2.914.4 1.832.571 2.672.27 1.301.496 2.7.77 4l.011.242c.075.387.145.774.114 1.114 1.57-1.04 2.77-2.18 2.972-3.336Zm-5.07 4.508c.258-.188.516-.371.773-.559.2-.328.114-.957.055-1.512l.016-.172c-.114-.699-.227-1.398-.414-2.07-.125-.945-.325-1.86-.524-2.773-.515-2.528-1.199-5.07-2.168-7.5l-.086-.211c-.172-.43-.34-.86-.613-1.332 0 0-.055-.14-.086-.211a12.648 12.648 0 0 0-.082-.215l-.601-1.086c-.086-.215-.243-.402-.426-.66l-.031-.07c.03.07.058.144.015.242.102.457.129.945.227 1.402l.07.797c-.012.172.043.316.031.488l.043.313c.043.312.082.629.098.87.285 1.544.883 3.044 1.48 4.544.543 1.36 1.059 2.644 1.383 4.086.258 1.058.344 2.101.285 3.199a1.42 1.42 0 0 1-.215.914c-.085.2-.27.355-.457.512-.257.187-.586.402-.968.472-.5.2-.973.47-1.371.711-1.387.883-2.586 2.028-3.829 3.266-.597.57-1.128 1.113-1.753 1.613a768.27 768.27 0 0 0 4.382-2.496c.829-.41 1.625-.894 2.426-1.383Zm-5.453 6.234a8.26 8.26 0 0 1 1.129-2.355c-.543.296-1.016.57-1.485.84-1.273.753-2.57 1.44-3.77 2.167l-2.097 1.168c-.258.184-.543.301-.828.414a6.485 6.485 0 0 0 4.164.489c.074-.028.145-.055.246-.012 1.895-.43 2.184-1.371 2.64-2.711Zm-3.313 3.723c-1.644.242-3.34-.075-4.78-.993-.216.086-.474.274-.759.387.684 3.785.47 7.184-.648 10.196 2.23-3.125 4.285-6.266 6.187-9.59Zm-5.578 25.414c2.223 3.5 5.332 5.074 9.528 4.808 3.156-.183 4.84-.11 7.992 1.364.328.203.73.375 1.129.546 1.738 1.043 3.039 1.602 4.136.418 1.543-1.527.204-4.468-.824-6.628-.199-.5-.469-.97-.613-1.329-.41-1.242-.797-2.414-1.067-3.714-.414-1.657-.796-3.243-1.597-4.829-3.207-5.757-7.617-5.406-12.828-3.328-1.64.657-3.367 1.512-5.266 2.352l-1.187.555c.058.144.015.246.074.386l.027.07.028.075c1.07 1.64 1.683 2.558 3.296 3.488a9.205 9.205 0 0 0 1.97.785c1.14.375 2.28.746 3.194 1.79.157.187.172.429-.015.585-.07.028-.07.028-.14.059-.145.055-.415-.004-.544-.117-.758-.856-1.797-1.188-2.84-1.516a10.28 10.28 0 0 1-2.07-.832 8.905 8.905 0 0 1-2.723-2.473c-.058.684-.187 1.399-.316 2.114-.285 1.77-.656 3.328.656 5.37Zm-1.21-7.801c0-.414-.044-.727-.184-1.086l-1.07-1.64c-.044.097-.157.226-.2.327.383.758.969 1.598 1.453 2.399Zm-17.602 12.906c-.559.055-1.156-.203-1.645-.586-2.453-2.004-2.137-5.36-1.75-8.328.028-.344.086-.613.113-.957-.125-.113-.183-.258-.312-.371a94.904 94.904 0 0 1-3.61-3.86c.673 2.712 1.282 5.286 1.895 7.856l.102.043.129.113c.199.086.254.23.312.371.059.145.043.317-.043.516-.043.098-.086.2-.23.258.629 2.812 1.168 5.41 1.582 7.898l.027.07c1.215-.898 2.371-1.94 3.43-3.023Zm-8.149 23.54c2.157-5.169 3.79-11.45 3.664-17.36-3.64 3.11-7.468 5.96-11.379 8.598a26.565 26.565 0 0 1 4.075 10.214l3.64-1.453Zm-14.097-2.985c2.593 1.945 5.632 3.96 9.101 4.148a25.28 25.28 0 0 0-3.75-9.183c-.27-.473-.613-.914-.926-1.29-.214-.327-.5-.628-.71-.956-.657-.813-1.356-1.528-2.055-2.243-1.914-1.886-4.094-3.418-6.52-4.52.371.513.7 1.13.856 1.727.254 1.06.039 1.973-.559 2.543-.187.157-.37.313-.586.399a3.17 3.17 0 0 1-1.226.242l-.172-.016c-.63.086-1.215.07-1.871.086l.984 1.84c.484.801.899 1.63 1.254 2.317l3.754 2.976.812.586c.157.184.356.27.516.457.285.3.64.57 1.098.887Zm-3.754-1.32-.84-.657.512.871a.821.821 0 0 0 .328-.214Zm-2.317 6.64c1 .016 2 .031 2.942-.097-.059-.56-.215-1.157-.344-1.688a15.8 15.8 0 0 0-.996-2.5c-.2-.5-.469-.969-.742-1.441-.27-.473-.54-.946-.785-1.344l-1.352-2.36c-.36-.683-.871-1.554-1.313-2.457-.44-.898-.957-1.77-1.312-2.457-1.242 0-2.527-.316-3.625-.789-1.625-.757-2.926-2.144-4.035-3.273l-1.14-1.203c-.415-.414-.731-.785-1.114-1.13-2.043-.343-4.11-1.589-5.707-3.105 1.027 1.332 2.168 2.532 3.351 3.633.485.387.872.727 1.356 1.114 1.77 1.53 3.637 3.105 5.133 4.992 1.285 1.554 3.281 4.902 2.55 8.668-.027.343-.226.672-.457.93-.113.128-.328.214-.468.269-.5.2-1.016.156-1.516-.059-.371-.097-.77-.27-1.168-.441 1.281 1.14 2.754 2.129 4.238 2.945.625.328 1.254.656 1.852.914.371.102.7.301 1.07.403 1.13.129 2.313.402 3.582.476Zm-6.308 6.574c2.894.832 5.922.95 8.847 1.024-.629-2.399-1.796-4.5-3.023-6.328-1.2-.102-2.383-.375-3.523-.746a17.668 17.668 0 0 1-2.2-.946c-.597-.257-1.156-.617-1.754-.875-2.199-1.36-4.265-3.015-6.035-4.96-1-.43-1.953-.958-2.84-1.516a21.172 21.172 0 0 1 2.594 8.984c.028.07-.015.172.016.242l.039.73c.258.227.515.458.742.614 2.027 1.758 4.508 3.004 7.137 3.777Zm-11.977 4.614c1.5-2.254 2.371-4.836 2.63-7.508.1-.371.1-.785.1-1.2l.012-.585c-.011-.242 0-.414-.011-.657-.211-4.054-1.766-8.156-4.004-10.656-1.215-.758-2.27-1.746-3.211-2.86-1.098-1.3-1.824-2.917-1.953-4.687a18.149 18.149 0 0 1-3.243 8.25l.028.07a19.932 19.932 0 0 0 3.375 13.645c.27.469.613.914 1.027 1.328 1.383 2.016 3.18 3.618 5.25 4.86Zm-7.633-5.649c-.586-.844-1.027-1.742-1.468-2.644-.7 1.36-1.528 2.597-2.457 3.797 1.27-.34 2.582-.782 3.925-1.153Zm-10.68 6a48.056 48.056 0 0 0 2.458-2.136c.715-.7 1.425-1.399 2.113-2.172a20.45 20.45 0 0 0 3.914-5.95c-.957-2.601-1.383-5.328-1.324-8.082-.457.512-1.043.91-1.656 1.239-.5.199-.985.226-1.5.183-1.184-.273-2.125-1.386-2.524-3.215-.183-.671-.27-1.3-.383-2-2.144 2.926-3.3 6.454-3.504 10.094-.156 3.125.243 6.195 1.266 9.184.129.527.328 1.027.527 1.527.215.328.414.828.614 1.328Zm-2.394-2.687c-.984-3.086-1.437-6.297-1.238-9.524.074-1.273.289-2.601.601-3.886-1.285.93-2.726 1.668-4.226 2.265-3.852 1.54-8.133 2.008-12.274 1.172-.171-.012-.398-.172-.457-.312a.697.697 0 0 1 .016-.586c.672-1.426.973-2.957 1.316-4.582.157-.645.313-1.286.473-1.93-.617.328-1.23.656-1.871.914-2.355.938-4.867 1.277-7.066 1.578-.457.098-1.399.227-2.07-.418-.954-.945-.227-2.226.116-3.027.387-.899.743-1.871.958-2.785.144-.47.257-1.012.402-1.485 1.043-3.394 3.14-6.222 5.328-8.832a10.616 10.616 0 0 1-3.656-.863c-.297-.129-.555-.356-.77-.684-.258-.644.2-1.156.285-1.355 2.657-3.711 6.414-6.535 10.711-8-.629-.332-1.187-.688-1.699-1.145a15.066 15.066 0 0 1-2.281-2.402c-.285-.3-.5-.629-.785-.93a34.187 34.187 0 0 0-2.297-2.23C92.844 268.516 29.703 240.3 7.242 184.012c-.316-.785-.629-1.575-.914-2.29 1.55 10.727 4.399 21.184 8.39 31.188 25.13 62.762 91.278 97.063 155.192 84.309Zm0 0"/>
        </g>
      </g>
    </g>
  </g>
</svg>
