<?xml version="1.0" standalone="no"?>
<!DOCTYPE svg PUBLIC "-//W3C//DTD SVG 20010904//EN"
 "http://www.w3.org/TR/2001/REC-SVG-20010904/DTD/svg10.dtd">
<svg version="1.0" xmlns="http://www.w3.org/2000/svg"
 width="500.000000pt" height="500.000000pt" viewBox="0 0 500.000000 500.000000"
 preserveAspectRatio="xMidYMid meet">
<metadata>
Created by potrace 1.14, written by Peter Selinger 2001-2017
</metadata>
<g transform="translate(0.000000,500.000000) scale(0.100000,-0.100000)"
fill="#000000" stroke="none">
<path d="M2280 4990 c-667 -66 -1257 -372 -1682 -870 -301 -352 -492 -773
-570 -1252 -31 -191 -31 -545 0 -736 82 -503 279 -922 615 -1304 309 -351 786
-638 1250 -752 220 -54 352 -69 607 -69 259 0 395 16 619 72 877 223 1577 922
1802 1801 54 214 73 369 73 620 0 251 -19 406 -73 620 -100 390 -294 748 -575
1063 -313 350 -777 628 -1239 741 -246 61 -600 89 -827 66z m540 -56 c537 -71
1026 -313 1414 -700 322 -323 538 -704 651 -1149 92 -364 92 -806 0 -1170
-226 -892 -908 -1574 -1800 -1800 -364 -92 -806 -92 -1170 0 -445 113 -826
329 -1149 651 -388 389 -623 863 -702 1419 -23 161 -23 467 0 630 78 554 314
1030 702 1419 545 544 1294 800 2054 700z"/>
<path d="M2260 4879 c-336 -34 -732 -169 -1020 -349 -204 -127 -422 -319 -582
-510 -395 -473 -597 -1128 -538 -1741 80 -830 585 -1557 1335 -1924 928 -455
2042 -258 2760 486 919 952 893 2455 -56 3374 -506 489 -1205 733 -1899 664z
m570 -54 c493 -72 938 -291 1299 -640 427 -413 671 -939 711 -1536 37 -558
-128 -1106 -472 -1568 -93 -123 -326 -356 -449 -449 -593 -442 -1316 -583
-2033 -397 -633 164 -1204 638 -1496 1240 -163 336 -234 648 -234 1025 0 233
16 365 69 576 80 315 233 624 432 877 73 93 297 317 390 390 351 277 781 449
1238 496 125 13 407 6 545 -14z"/>
<path d="M1829 3575 c17 -19 38 -49 46 -65 18 -35 345 -867 345 -878 0 -4 -26
-21 -58 -39 -173 -95 -292 -255 -350 -472 -22 -84 -25 -116 -25 -261 0 -145 3
-176 26 -262 74 -277 244 -463 492 -536 166 -49 393 -36 562 32 l84 34 110
-44 c60 -24 111 -44 113 -44 3 0 -2 16 -10 36 -12 29 -14 86 -12 329 3 272 4
294 22 314 l19 21 -115 0 -116 0 19 -37 c17 -32 19 -60 19 -214 0 -98 -4 -189
-10 -203 -44 -116 -235 -197 -466 -198 -298 -1 -495 176 -571 513 -12 54 -17
122 -17 254 0 156 3 191 23 264 44 164 116 289 222 384 34 31 65 55 68 53 3
-3 58 -137 121 -300 63 -163 117 -296 120 -296 3 0 61 144 129 319 68 175 126
324 130 330 11 17 125 -42 181 -95 27 -25 71 -77 97 -115 25 -38 50 -66 54
-62 7 8 69 175 69 186 0 4 -11 7 -24 7 -12 0 -73 25 -135 55 -61 30 -136 62
-166 70 l-54 16 20 52 c12 29 82 207 156 396 151 387 163 413 206 459 l31 32
-55 0 -54 0 -2 -53 c-1 -41 -32 -132 -158 -452 -86 -220 -159 -405 -161 -410
-3 -6 -72 -11 -177 -12 -94 -1 -185 -3 -201 -5 l-29 -3 -159 405 c-126 319
-161 418 -165 468 l-6 62 -109 0 -110 0 31 -35z m836 -941 c31 -3 55 -10 55
-17 0 -14 -171 -449 -175 -445 -2 2 -40 98 -85 213 -45 116 -84 215 -87 222
-3 7 11 16 34 22 71 20 109 21 258 5z"/>
</g>
</svg>
